<svg width="518" height="360" viewBox="0 0 518 360" fill="none" xmlns="http://www.w3.org/2000/svg">
<path d="M11.28 229.92V203.52L89.76 91.2H128.88V200.64H150V229.92H128.88V264H95.28V229.92H11.28ZM97.44 127.2L48.24 200.64H97.44V127.2Z" fill="url(#paint0_linear_568_233)"/>
<path d="M258.999 263.333C305.023 263.333 342.333 226.024 342.333 180C342.333 133.976 305.023 96.6667 258.999 96.6667C212.976 96.6667 175.666 133.976 175.666 180C175.666 226.024 212.976 263.333 258.999 263.333Z" stroke="black" stroke-width="2" stroke-linecap="round"/>
<path d="M224.674 215.367C228.782 211.808 234.19 209.242 240.024 207.558C246.2 205.83 252.586 204.969 258.999 205C265.549 205 272.082 205.858 277.974 207.558C283.807 209.242 289.224 211.808 293.324 215.367" stroke="black" stroke-width="2" stroke-linecap="round"/>
<path d="M233.999 173.75C239.752 173.75 244.415 169.086 244.415 163.333C244.415 157.58 239.752 152.917 233.999 152.917C228.246 152.917 223.582 157.58 223.582 163.333C223.582 169.086 228.246 173.75 233.999 173.75Z" fill="black" stroke="black" stroke-width="0.5" stroke-linecap="round"/>
<path d="M283.999 173.75C289.752 173.75 294.415 169.086 294.415 163.333C294.415 157.58 289.752 152.917 283.999 152.917C278.246 152.917 273.582 157.58 273.582 163.333C273.582 169.086 278.246 173.75 283.999 173.75Z" fill="black" stroke="black" stroke-width="0.5" stroke-linecap="round"/>
<path d="M370.28 229.92V203.52L448.76 91.2H487.88V200.64H509V229.92H487.88V264H454.28V229.92H370.28ZM456.44 127.2L407.24 200.64H456.44V127.2Z" fill="#FFBB00"/>
<defs>
<linearGradient id="paint0_linear_568_233" x1="3.13393" y1="-1.24487e-06" x2="166.52" y2="355.098" gradientUnits="userSpaceOnUse">
<stop stop-color="#3EB7E8"/>
<stop offset="0.5" stop-color="#4277EA"/>
<stop offset="1" stop-color="#4D67E8"/>
</linearGradient>
</defs>
</svg>
