<svg width="80" height="80" viewBox="0 0 80 80" fill="none" xmlns="http://www.w3.org/2000/svg">
<path d="M26.25 17.5V7.5C26.25 7.16848 26.3817 6.85054 26.6161 6.61612C26.8505 6.3817 27.1685 6.25 27.5 6.25C27.8315 6.25 28.1495 6.3817 28.3839 6.61612C28.6183 6.85054 28.75 7.16848 28.75 7.5V17.5C28.75 17.8315 28.6183 18.1495 28.3839 18.3839C28.1495 18.6183 27.8315 18.75 27.5 18.75C27.1685 18.75 26.8505 18.6183 26.6161 18.3839C26.3817 18.1495 26.25 17.8315 26.25 17.5ZM37.5 18.75C37.8315 18.75 38.1495 18.6183 38.3839 18.3839C38.6183 18.1495 38.75 17.8315 38.75 17.5V7.5C38.75 7.16848 38.6183 6.85054 38.3839 6.61612C38.1495 6.3817 37.8315 6.25 37.5 6.25C37.1685 6.25 36.8505 6.3817 36.6161 6.61612C36.3817 6.85054 36.25 7.16848 36.25 7.5V17.5C36.25 17.8315 36.3817 18.1495 36.6161 18.3839C36.8505 18.6183 37.1685 18.75 37.5 18.75ZM47.5 18.75C47.8315 18.75 48.1495 18.6183 48.3839 18.3839C48.6183 18.1495 48.75 17.8315 48.75 17.5V7.5C48.75 7.16848 48.6183 6.85054 48.3839 6.61612C48.1495 6.3817 47.8315 6.25 47.5 6.25C47.1685 6.25 46.8505 6.3817 46.6161 6.61612C46.3817 6.85054 46.25 7.16848 46.25 7.5V17.5C46.25 17.8315 46.3817 18.1495 46.6161 18.3839C46.8505 18.6183 47.1685 18.75 47.5 18.75ZM76.25 37.5V40C76.25 42.9837 75.0647 45.8452 72.955 47.955C70.8452 50.0647 67.9837 51.25 65 51.25H64.8719C62.9116 57.35 58.9809 62.6262 53.6969 66.25H65C65.3315 66.25 65.6495 66.3817 65.8839 66.6161C66.1183 66.8505 66.25 67.1685 66.25 67.5C66.25 67.8315 66.1183 68.1495 65.8839 68.3839C65.6495 68.6183 65.3315 68.75 65 68.75H10C9.66848 68.75 9.35054 68.6183 9.11612 68.3839C8.8817 68.1495 8.75 67.8315 8.75 67.5C8.75 67.1685 8.8817 66.8505 9.11612 66.6161C9.35054 66.3817 9.66848 66.25 10 66.25H21.3031C17.4417 63.6059 14.2812 60.0624 12.0943 55.9248C9.90742 51.7873 8.75965 47.1799 8.75 42.5V27.5C8.75 27.1685 8.8817 26.8505 9.11612 26.6161C9.35054 26.3817 9.66848 26.25 10 26.25H65C67.9837 26.25 70.8452 27.4353 72.955 29.545C75.0647 31.6548 76.25 34.5163 76.25 37.5ZM63.75 42.5V28.75H11.25V42.5C11.2601 47.4778 12.6807 52.3509 15.3472 56.5544C18.0136 60.7578 21.8167 64.1196 26.3156 66.25H48.6844C53.1833 64.1196 56.9864 60.7578 59.6528 56.5544C62.3193 52.3509 63.7399 47.4778 63.75 42.5ZM73.75 37.5C73.7498 35.3961 72.9915 33.3627 71.6141 31.7723C70.2367 30.182 68.3323 29.1412 66.25 28.8406V42.5C66.2492 44.596 66.0186 46.6855 65.5625 48.7313C67.7811 48.5883 69.862 47.6063 71.3827 45.9846C72.9034 44.3629 73.7498 42.2232 73.75 40V37.5Z" fill="black"/>
</svg>
