<svg width="140" height="140" viewBox="0 0 140 140" fill="none" xmlns="http://www.w3.org/2000/svg">
<path d="M17.5 81.6667C22.3417 85.4117 29.6158 87.5992 37.9167 87.5C46.2175 87.5992 53.4917 85.4117 58.3333 81.6667C63.175 77.9217 70.4492 75.7342 78.75 75.8333C87.0508 75.7342 94.325 77.9217 99.1667 81.6667M46.6667 17.5C44.8205 18.8252 43.3246 20.5798 42.3083 22.6125C41.292 24.6451 40.7857 26.8946 40.8333 29.1667C40.7857 31.4387 41.292 33.6882 42.3083 35.7209C43.3246 37.7535 44.8205 39.5082 46.6667 40.8333M70 17.5C68.1538 18.8252 66.6579 20.5798 65.6416 22.6125C64.6253 24.6451 64.1191 26.8946 64.1667 29.1667C64.1191 31.4387 64.6253 33.6882 65.6416 35.7209C66.6579 37.7535 68.1538 39.5082 70 40.8333" stroke="black" strokeWidth="2" strokeLinecap="round" strokeLinejoin="round"/>
<path d="M17.5 58.3334H99.1667V87.5C99.1667 96.7826 95.4792 105.685 88.9154 112.249C82.3516 118.813 73.4492 122.5 64.1667 122.5H52.5C43.2174 122.5 34.315 118.813 27.7513 112.249C21.1875 105.685 17.5 96.7826 17.5 87.5V58.3334Z" stroke="black" strokeWidth="2" strokeLinecap="round" strokeLinejoin="round"/>
<path d="M97.6855 97.5683C100.291 98.7642 103.15 99.3019 106.011 99.134C108.873 98.9662 111.65 98.0979 114.097 96.6056C116.545 95.1133 118.588 93.0426 120.048 90.5756C121.507 88.1086 122.339 85.3207 122.469 82.4571C122.599 79.5935 122.023 76.7419 120.793 74.1528C119.562 71.5637 117.715 69.3165 115.412 67.6088C113.11 65.901 110.424 64.7849 107.589 64.3586C104.754 63.9324 101.858 64.209 99.1555 65.1641" stroke="black" strokeWidth="2" strokeLinecap="round" strokeLinejoin="round"/>
</svg>
